<svg width="192" height="162" viewBox="0 0 192 162" fill="none" xmlns="http://www.w3.org/2000/svg">
<path d="M50.5767 116.362L42.2359 137.686C42.1386 137.934 41.9769 138.152 41.7673 138.317C41.5578 138.482 41.308 138.588 41.0438 138.625C40.7795 138.661 40.5103 138.626 40.264 138.524C40.0176 138.422 39.803 138.256 39.6422 138.043L26.8059 121.026L19.4418 139.849C19.2882 140.207 19.0015 140.491 18.6423 140.641C18.2831 140.791 17.8795 140.796 17.5169 140.654C17.1543 140.512 16.8611 140.235 16.6992 139.881C16.5373 139.527 16.5195 139.124 16.6495 138.756L24.9903 117.433C25.0876 117.185 25.2493 116.967 25.4589 116.802C25.6684 116.637 25.9182 116.531 26.1824 116.494C26.4467 116.458 26.7159 116.493 26.9622 116.595C27.2086 116.697 27.4232 116.863 27.584 117.076L40.4203 134.093L47.7844 115.27C47.938 114.912 48.2247 114.628 48.5839 114.478C48.9431 114.328 49.3467 114.323 49.7093 114.465C50.0719 114.607 50.3651 114.884 50.527 115.238C50.6889 115.592 50.7067 115.995 50.5767 116.362Z" fill="white"/>
<path d="M81.7115 92.8758L73.3707 114.199C73.2734 114.447 73.1116 114.665 72.9021 114.83C72.6925 114.996 72.4428 115.102 72.1785 115.138C71.9143 115.174 71.6451 115.14 71.3988 115.037C71.1524 114.935 70.9378 114.769 70.777 114.556L57.9407 97.5397L50.5766 116.362C50.423 116.72 50.1363 117.004 49.7771 117.154C49.4178 117.305 49.0143 117.309 48.6517 117.168C48.2891 117.026 47.9958 116.748 47.834 116.394C47.6721 116.04 47.6543 115.637 47.7843 115.27L56.1251 93.9467C56.2224 93.6983 56.3841 93.4803 56.5936 93.3153C56.8032 93.1502 57.053 93.044 57.3172 93.0077C57.5815 92.9713 57.8506 93.006 58.097 93.1083C58.3433 93.2106 58.558 93.3767 58.7187 93.5896L71.555 110.606L78.9192 91.7833C79.0728 91.4255 79.3595 91.1415 79.7187 90.9912C80.0779 90.841 80.4815 90.8363 80.8441 90.9782C81.2067 91.12 81.4999 91.3973 81.6618 91.7515C81.8236 92.1056 81.8415 92.5088 81.7115 92.8758Z" fill="white"/>
<path d="M112.846 69.3893L104.506 90.7125C104.408 90.9609 104.247 91.1788 104.037 91.3439C103.828 91.5089 103.578 91.6151 103.314 91.6515C103.049 91.6879 102.78 91.6531 102.534 91.5508C102.287 91.4486 102.073 91.2824 101.912 91.0696L89.0757 74.0532L81.7116 92.8758C81.558 93.2336 81.2713 93.5177 80.9121 93.6679C80.5529 93.8182 80.1493 93.8229 79.7867 93.681C79.4241 93.5391 79.1309 93.2618 78.969 92.9077C78.8071 92.5536 78.7893 92.1504 78.9193 91.7833L87.2601 70.4601C87.3574 70.2117 87.5191 69.9938 87.7287 69.8287C87.9382 69.6637 88.188 69.5575 88.4522 69.5211C88.7165 69.4847 88.9856 69.5195 89.232 69.6217C89.4783 69.724 89.693 69.8901 89.8537 70.103L102.69 87.1194L110.054 68.2968C110.208 67.939 110.494 67.6549 110.854 67.5047C111.213 67.3544 111.616 67.3497 111.979 67.4916C112.342 67.6335 112.635 67.9108 112.797 68.2649C112.959 68.619 112.976 69.0222 112.846 69.3893Z" fill="white"/>
<path d="M143.981 45.9027L135.641 67.2259C135.543 67.4743 135.382 67.6923 135.172 67.8573C134.963 68.0224 134.713 68.1285 134.449 68.1649C134.184 68.2013 133.915 68.1666 133.669 68.0643C133.422 67.962 133.208 67.7959 133.047 67.583L120.211 50.5666L112.847 69.3893C112.693 69.747 112.406 70.0311 112.047 70.1814C111.688 70.3316 111.284 70.3363 110.922 70.1944C110.559 70.0526 110.266 69.7752 110.104 69.4211C109.942 69.067 109.924 68.6638 110.054 68.2968L118.395 46.9735C118.492 46.7251 118.654 46.5072 118.864 46.3421C119.073 46.1771 119.323 46.0709 119.587 46.0345C119.851 45.9981 120.121 46.0329 120.367 46.1352C120.613 46.2374 120.828 46.4036 120.989 46.6164L133.825 63.6328L141.189 44.8102C141.343 44.4524 141.629 44.1683 141.989 44.0181C142.348 43.8678 142.751 43.8631 143.114 44.005C143.477 44.1469 143.77 44.4242 143.932 44.7783C144.094 45.1325 144.111 45.5357 143.981 45.9027Z" fill="white"/>
<path d="M175.116 22.4161L166.776 43.7394C166.678 43.9877 166.517 44.2057 166.307 44.3707C166.097 44.5358 165.848 44.642 165.583 44.6784C165.319 44.7147 165.05 44.68 164.804 44.5777C164.557 44.4754 164.343 44.3093 164.182 44.0964L151.346 27.08L143.981 45.9027C143.828 46.2605 143.541 46.5445 143.182 46.6948C142.823 46.845 142.419 46.8497 142.057 46.7079C141.694 46.566 141.401 46.2887 141.239 45.9345C141.077 45.5804 141.059 45.1772 141.189 44.8102L149.53 23.4869C149.627 23.2386 149.789 23.0206 149.999 22.8556C150.208 22.6905 150.458 22.5843 150.722 22.5479C150.986 22.5116 151.256 22.5463 151.502 22.6486C151.748 22.7509 151.963 22.917 152.124 23.1299L164.96 40.1463L172.324 21.3236C172.478 20.9658 172.764 20.6818 173.124 20.5315C173.483 20.3813 173.886 20.3766 174.249 20.5184C174.612 20.6603 174.905 20.9376 175.067 21.2918C175.229 21.6459 175.246 22.0491 175.116 22.4161Z" fill="white"/>
</svg>
