<svg width="203" height="138" viewBox="0 0 203 138" fill="none" xmlns="http://www.w3.org/2000/svg">
<g clip-path="url(#clip0_9_76)">
<path d="M50.5759 42.7221C42.833 48.5585 37.7085 50.4764 34.4249 48.7441C30.2624 46.5481 30.5856 39.6549 30.9277 32.3563C31.1976 26.5968 31.5044 20.0681 29.0334 18.7645C26.3137 17.3297 19.7564 21.7585 16.0886 24.5276C15.7705 24.7584 15.3746 24.8551 14.986 24.797C14.5973 24.7389 14.247 24.5305 14.0103 24.2168C13.7737 23.9031 13.6696 23.5091 13.7204 23.1194C13.7713 22.7297 13.973 22.3756 14.2822 22.1331C22.0103 16.2889 27.1431 14.3753 30.4333 16.1111C34.5957 18.3071 34.2726 25.2003 33.9305 32.4989C33.654 38.255 33.3472 44.7836 35.8181 46.0872C38.5379 47.5221 45.0952 43.0932 48.7629 40.3241C49.081 40.0933 49.4769 39.9966 49.8656 40.0547C50.2542 40.1129 50.6045 40.3212 50.8412 40.6349C51.0779 40.9486 51.182 41.3427 51.1311 41.7323C51.0803 42.122 50.8785 42.4761 50.5693 42.7186L50.5759 42.7221Z" fill="white"/>
</g>
<g clip-path="url(#clip1_9_76)">
<path d="M85.07 60.9201C77.327 66.7565 72.2025 68.6744 68.9189 66.9421C64.7565 64.7461 65.0796 57.8529 65.4217 50.5543C65.6916 44.7948 65.9984 38.2661 63.5274 36.9625C60.8077 35.5277 54.2504 39.9565 50.5826 42.7256C50.2645 42.9564 49.8686 43.0531 49.48 42.995C49.0913 42.9368 48.741 42.7285 48.5044 42.4148C48.2677 42.1011 48.1636 41.7071 48.2145 41.3174C48.2653 40.9277 48.467 40.5736 48.7763 40.3311C56.5043 34.4869 61.6371 32.5733 64.9273 34.3091C69.0898 36.5051 68.7666 43.3983 68.4245 50.6969C68.148 56.453 67.8412 62.9816 70.3122 64.2852C73.0319 65.7201 79.5892 61.2912 83.257 58.5221C83.575 58.2913 83.971 58.1946 84.3596 58.2527C84.7483 58.3109 85.0986 58.5192 85.3352 58.8329C85.5719 59.1466 85.676 59.5407 85.6251 59.9303C85.5743 60.32 85.3726 60.6741 85.0633 60.9166L85.07 60.9201Z" fill="white"/>
</g>
<g clip-path="url(#clip2_9_76)">
<path d="M119.564 79.1181C111.821 84.9545 106.696 86.8724 103.413 85.1401C99.2503 82.9441 99.5735 76.0509 99.9156 68.7523C100.185 62.9928 100.492 56.4641 98.0213 55.1605C95.3016 53.7257 88.7443 58.1545 85.0765 60.9236C84.7584 61.1544 84.3625 61.2511 83.9739 61.193C83.5852 61.1348 83.2349 60.9265 82.9983 60.6128C82.7616 60.2991 82.6575 59.9051 82.7083 59.5154C82.7592 59.1257 82.9609 58.7716 83.2701 58.5291C90.9982 52.6849 96.131 50.7713 99.4212 52.5071C103.584 54.7031 103.261 61.5963 102.918 68.8949C102.642 74.651 102.335 81.1796 104.806 82.4832C107.526 83.918 114.083 79.4892 117.751 76.7201C118.069 76.4893 118.465 76.3926 118.854 76.4507C119.242 76.5089 119.592 76.7172 119.829 77.0309C120.066 77.3446 120.17 77.7387 120.119 78.1283C120.068 78.518 119.866 78.8721 119.557 79.1146L119.564 79.1181Z" fill="white"/>
</g>
<g clip-path="url(#clip3_9_76)">
<path d="M154.058 97.3161C146.315 103.152 141.19 105.07 137.907 103.338C133.744 101.142 134.068 94.2489 134.41 86.9503C134.679 81.1908 134.986 74.6621 132.515 73.3585C129.796 71.9237 123.238 76.3525 119.571 79.1216C119.252 79.3524 118.857 79.4491 118.468 79.391C118.079 79.3328 117.729 79.1245 117.492 78.8108C117.256 78.4971 117.152 78.1031 117.202 77.7134C117.253 77.3237 117.455 76.9696 117.764 76.7271C125.492 70.8829 130.625 68.9693 133.915 70.7051C138.078 72.9011 137.755 79.7943 137.412 87.0929C137.136 92.849 136.829 99.3776 139.3 100.681C142.02 102.116 148.577 97.6872 152.245 94.9181C152.563 94.6873 152.959 94.5906 153.348 94.6487C153.736 94.7069 154.086 94.9152 154.323 95.2289C154.56 95.5426 154.664 95.9367 154.613 96.3263C154.562 96.716 154.36 97.0701 154.051 97.3126L154.058 97.3161Z" fill="white"/>
</g>
<g clip-path="url(#clip4_9_76)">
<path d="M188.552 115.514C180.809 121.35 175.684 123.268 172.401 121.536C168.238 119.34 168.561 112.447 168.903 105.148C169.173 99.3888 169.48 92.8601 167.009 91.5565C164.29 90.1217 157.732 94.5505 154.064 97.3196C153.746 97.5504 153.35 97.6471 152.962 97.589C152.573 97.5308 152.223 97.3225 151.986 97.0088C151.75 96.6951 151.645 96.3011 151.696 95.9114C151.747 95.5217 151.949 95.1676 152.258 94.9251C159.986 89.0809 165.119 87.1673 168.409 88.9031C172.572 91.0991 172.248 97.9923 171.906 105.291C171.63 111.047 171.323 117.576 173.794 118.879C176.514 120.314 183.071 115.885 186.739 113.116C187.057 112.885 187.453 112.789 187.841 112.847C188.23 112.905 188.58 113.113 188.817 113.427C189.054 113.741 189.158 114.135 189.107 114.524C189.056 114.914 188.854 115.268 188.545 115.511L188.552 115.514Z" fill="white"/>
</g>
<defs>
<clipPath id="clip0_9_76">
<rect width="48" height="48" fill="white" transform="translate(22.3975) rotate(27.8148)"/>
</clipPath>
<clipPath id="clip1_9_76">
<rect width="48" height="48" fill="white" transform="translate(56.8915 18.198) rotate(27.8148)"/>
</clipPath>
<clipPath id="clip2_9_76">
<rect width="48" height="48" fill="white" transform="translate(91.3854 36.396) rotate(27.8148)"/>
</clipPath>
<clipPath id="clip3_9_76">
<rect width="48" height="48" fill="white" transform="translate(125.879 54.594) rotate(27.8148)"/>
</clipPath>
<clipPath id="clip4_9_76">
<rect width="48" height="48" fill="white" transform="translate(160.373 72.792) rotate(27.8148)"/>
</clipPath>
</defs>
</svg>
