<svg width="136" height="26" viewBox="0 0 136 26" fill="none" xmlns="http://www.w3.org/2000/svg">
<path d="M2 23.9004L2 2.0002" stroke="white" stroke-width="4" stroke-linecap="round"/>
<path d="M2 23.9004L2 2.0002" stroke="white" stroke-width="4" stroke-linecap="round"/>
<path d="M24 23.9004L24 2.0002" stroke="white" stroke-width="4" stroke-linecap="round"/>
<path d="M24 23.9004L24 2.0002" stroke="white" stroke-width="4" stroke-linecap="round"/>
<path d="M24 2L2 2" stroke="white" stroke-width="4" stroke-linecap="round"/>
<path d="M24 2L2 2" stroke="white" stroke-width="4" stroke-linecap="round"/>
<path d="M24 24L46 24" stroke="white" stroke-width="4" stroke-linecap="round"/>
<path d="M24 24L46 24" stroke="white" stroke-width="4" stroke-linecap="round"/>
<path d="M46 23.9004V2.0002" stroke="white" stroke-width="4" stroke-linecap="round"/>
<path d="M46 23.9004V2.0002" stroke="white" stroke-width="4" stroke-linecap="round"/>
<path d="M68 23.9004V2.0002" stroke="white" stroke-width="4" stroke-linecap="round"/>
<path d="M68 23.9004V2.0002" stroke="white" stroke-width="4" stroke-linecap="round"/>
<path d="M68 2L46 2" stroke="white" stroke-width="4" stroke-linecap="round"/>
<path d="M68 2L46 2" stroke="white" stroke-width="4" stroke-linecap="round"/>
<path d="M68 24L90 24" stroke="white" stroke-width="4" stroke-linecap="round"/>
<path d="M68 24L90 24" stroke="white" stroke-width="4" stroke-linecap="round"/>
<path d="M90 23.9004V2.0002" stroke="white" stroke-width="4" stroke-linecap="round"/>
<path d="M90 23.9004V2.0002" stroke="white" stroke-width="4" stroke-linecap="round"/>
<path d="M112 23.9004V2.0002" stroke="white" stroke-width="4" stroke-linecap="round"/>
<path d="M112 23.9004V2.0002" stroke="white" stroke-width="4" stroke-linecap="round"/>
<path d="M134 23.9004V2.0002" stroke="white" stroke-width="4" stroke-linecap="round"/>
<path d="M134 23.9004V2.0002" stroke="white" stroke-width="4" stroke-linecap="round"/>
<path d="M112 2L90 2" stroke="white" stroke-width="4" stroke-linecap="round"/>
<path d="M112 2L90 2" stroke="white" stroke-width="4" stroke-linecap="round"/>
<path d="M112 24L134 24" stroke="white" stroke-width="4" stroke-linecap="round"/>
<path d="M112 24L134 24" stroke="white" stroke-width="4" stroke-linecap="round"/>
</svg>
