<svg width="204" height="48" viewBox="0 0 204 48" fill="none" xmlns="http://www.w3.org/2000/svg">
<path d="M44.8575 24.6375C40.7325 33.4125 37.095 37.5 33.3825 37.5C28.6762 37.5 25.7456 31.2525 22.6425 24.6375C20.1937 19.4175 17.4187 13.5 14.625 13.5C11.55 13.5 7.81686 20.4769 5.86498 24.6375C5.69132 24.99 5.38626 25.2603 5.01539 25.3902C4.64453 25.5202 4.23749 25.4994 3.8818 25.3323C3.5261 25.1653 3.25016 24.8653 3.11331 24.497C2.97646 24.1286 2.98963 23.7213 3.14998 23.3625C7.25811 14.5875 10.905 10.5 14.625 10.5C19.3312 10.5 22.2619 16.7475 25.365 23.3625C27.8062 28.5825 30.5812 34.5 33.375 34.5C36.45 34.5 40.1831 27.5231 42.135 23.3625C42.3086 23.01 42.6137 22.7397 42.9846 22.6098C43.3554 22.4798 43.7625 22.5006 44.1182 22.6677C44.4739 22.8347 44.7498 23.1347 44.8866 23.503C45.0235 23.8714 45.0103 24.2787 44.85 24.6375H44.8575Z" fill="white"/>
<path d="M83.8575 24.6375C79.7325 33.4125 76.095 37.5 72.3825 37.5C67.6762 37.5 64.7456 31.2525 61.6425 24.6375C59.1937 19.4175 56.4187 13.5 53.625 13.5C50.55 13.5 46.8169 20.4769 44.865 24.6375C44.6913 24.99 44.3863 25.2603 44.0154 25.3902C43.6445 25.5202 43.2375 25.4994 42.8818 25.3323C42.5261 25.1653 42.2502 24.8653 42.1133 24.497C41.9765 24.1286 41.9896 23.7213 42.15 23.3625C46.2581 14.5875 49.905 10.5 53.625 10.5C58.3312 10.5 61.2619 16.7475 64.365 23.3625C66.8062 28.5825 69.5812 34.5 72.375 34.5C75.45 34.5 79.1831 27.5231 81.135 23.3625C81.3086 23.01 81.6137 22.7397 81.9846 22.6098C82.3554 22.4798 82.7625 22.5006 83.1182 22.6677C83.4739 22.8347 83.7498 23.1347 83.8866 23.503C84.0235 23.8714 84.0103 24.2787 83.85 24.6375H83.8575Z" fill="white"/>
<path d="M122.857 24.6375C118.732 33.4125 115.095 37.5 111.382 37.5C106.676 37.5 103.746 31.2525 100.642 24.6375C98.1937 19.4175 95.4187 13.5 92.625 13.5C89.55 13.5 85.8169 20.4769 83.865 24.6375C83.6913 24.99 83.3863 25.2603 83.0154 25.3902C82.6445 25.5202 82.2375 25.4994 81.8818 25.3323C81.5261 25.1653 81.2502 24.8653 81.1133 24.497C80.9765 24.1286 80.9896 23.7213 81.15 23.3625C85.2581 14.5875 88.905 10.5 92.625 10.5C97.3312 10.5 100.262 16.7475 103.365 23.3625C105.806 28.5825 108.581 34.5 111.375 34.5C114.45 34.5 118.183 27.5231 120.135 23.3625C120.309 23.01 120.614 22.7397 120.985 22.6098C121.355 22.4798 121.762 22.5006 122.118 22.6677C122.474 22.8347 122.75 23.1347 122.887 23.503C123.023 23.8714 123.01 24.2787 122.85 24.6375H122.857Z" fill="white"/>
<path d="M161.857 24.6375C157.732 33.4125 154.095 37.5 150.382 37.5C145.676 37.5 142.746 31.2525 139.642 24.6375C137.194 19.4175 134.419 13.5 131.625 13.5C128.55 13.5 124.817 20.4769 122.865 24.6375C122.691 24.99 122.386 25.2603 122.015 25.3902C121.645 25.5202 121.237 25.4994 120.882 25.3323C120.526 25.1653 120.25 24.8653 120.113 24.497C119.976 24.1286 119.99 23.7213 120.15 23.3625C124.258 14.5875 127.905 10.5 131.625 10.5C136.331 10.5 139.262 16.7475 142.365 23.3625C144.806 28.5825 147.581 34.5 150.375 34.5C153.45 34.5 157.183 27.5231 159.135 23.3625C159.309 23.01 159.614 22.7397 159.985 22.6098C160.355 22.4798 160.762 22.5006 161.118 22.6677C161.474 22.8347 161.75 23.1347 161.887 23.503C162.023 23.8714 162.01 24.2787 161.85 24.6375H161.857Z" fill="white"/>
<path d="M200.857 24.6375C196.732 33.4125 193.095 37.5 189.382 37.5C184.676 37.5 181.746 31.2525 178.642 24.6375C176.194 19.4175 173.419 13.5 170.625 13.5C167.55 13.5 163.817 20.4769 161.865 24.6375C161.691 24.99 161.386 25.2603 161.015 25.3902C160.645 25.5202 160.237 25.4994 159.882 25.3323C159.526 25.1653 159.25 24.8653 159.113 24.497C158.976 24.1286 158.99 23.7213 159.15 23.3625C163.258 14.5875 166.905 10.5 170.625 10.5C175.331 10.5 178.262 16.7475 181.365 23.3625C183.806 28.5825 186.581 34.5 189.375 34.5C192.45 34.5 196.183 27.5231 198.135 23.3625C198.309 23.01 198.614 22.7397 198.985 22.6098C199.355 22.4798 199.762 22.5006 200.118 22.6677C200.474 22.8347 200.75 23.1347 200.887 23.503C201.023 23.8714 201.01 24.2787 200.85 24.6375H200.857Z" fill="white"/>
</svg>
