<svg width="195" height="158" viewBox="0 0 195 158" fill="none" xmlns="http://www.w3.org/2000/svg">
<g clip-path="url(#clip0_9_67)">
<path d="M50.5829 45.6329L44.4997 54.1912C44.2692 54.5154 43.9193 54.7348 43.5271 54.8011C43.1348 54.8674 42.7323 54.7752 42.408 54.5447L26.5141 43.2473C26.1898 43.0168 25.9704 42.667 25.9041 42.2747C25.8378 41.8825 25.93 41.4799 26.1605 41.1557L37.4579 25.2617L24.0092 15.7023L18.795 23.038C18.5645 23.3623 18.2146 23.5817 17.8224 23.648C17.4301 23.7143 17.0276 23.6221 16.7033 23.3916C16.3791 23.1611 16.1596 22.8113 16.0933 22.419C16.027 22.0267 16.1193 21.6242 16.3497 21.2999L22.433 12.7417C22.6635 12.4174 23.0133 12.198 23.4056 12.1317C23.7978 12.0654 24.2004 12.1576 24.5246 12.3881L40.4186 23.6855C40.7428 23.916 40.9623 24.2658 41.0286 24.6581C41.0949 25.0504 41.0026 25.4529 40.7722 25.7771L29.4747 41.6711L42.9235 51.2305L48.1377 43.8948C48.3682 43.5705 48.718 43.3511 49.1103 43.2848C49.5025 43.2185 49.9051 43.3107 50.2293 43.5412C50.5536 43.7717 50.773 44.1216 50.8393 44.5138C50.9056 44.9061 50.8134 45.3086 50.5829 45.6329Z" fill="white"/>
</g>
<g clip-path="url(#clip1_9_67)">
<path d="M82.3707 68.2278L76.2875 76.7861C76.057 77.1104 75.7072 77.3298 75.3149 77.3961C74.9227 77.4624 74.5201 77.3702 74.1959 77.1397L58.3019 65.8423C57.9776 65.6118 57.7582 65.2619 57.6919 64.8697C57.6256 64.4774 57.7178 64.0749 57.9483 63.7506L69.2457 47.8567L55.797 38.2973L50.5828 45.633C50.3523 45.9572 50.0025 46.1767 49.6102 46.243C49.218 46.3093 48.8154 46.217 48.4912 45.9866C48.1669 45.7561 47.9475 45.4062 47.8812 45.014C47.8149 44.6217 47.9071 44.2192 48.1376 43.8949L54.2208 35.3366C54.4513 35.0124 54.8011 34.793 55.1934 34.7266C55.5857 34.6603 55.9882 34.7526 56.3125 34.983L72.2064 46.2805C72.5307 46.511 72.7501 46.8608 72.8164 47.2531C72.8827 47.6453 72.7905 48.0479 72.56 48.3721L61.2626 64.2661L74.7113 73.8254L79.9255 66.4898C80.156 66.1655 80.5058 65.9461 80.8981 65.8798C81.2904 65.8135 81.6929 65.9057 82.0172 66.1362C82.3414 66.3667 82.5608 66.7165 82.6271 67.1088C82.6935 67.501 82.6012 67.9036 82.3707 68.2278Z" fill="white"/>
</g>
<g clip-path="url(#clip2_9_67)">
<path d="M114.159 90.8226L108.076 99.3809C107.845 99.7051 107.495 99.9245 107.103 99.9908C106.711 100.057 106.308 99.9649 105.984 99.7344L90.09 88.437C89.7657 88.2065 89.5463 87.8567 89.48 87.4644C89.4137 87.0722 89.5059 86.6696 89.7364 86.3454L101.034 70.4514L87.5851 60.892L82.3709 68.2277C82.1404 68.552 81.7906 68.7714 81.3983 68.8377C81.006 68.904 80.6035 68.8118 80.2792 68.5813C79.955 68.3508 79.7356 68.001 79.6693 67.6087C79.603 67.2164 79.6952 66.8139 79.9257 66.4896L86.0089 57.9314C86.2394 57.6071 86.5892 57.3877 86.9815 57.3214C87.3738 57.2551 87.7763 57.3473 88.1005 57.5778L103.995 68.8752C104.319 69.1057 104.538 69.4555 104.604 69.8478C104.671 70.2401 104.579 70.6426 104.348 70.9668L93.0507 86.8608L106.499 96.4202L111.714 89.0845C111.944 88.7602 112.294 88.5408 112.686 88.4745C113.078 88.4082 113.481 88.5004 113.805 88.7309C114.13 88.9614 114.349 89.3113 114.415 89.7035C114.482 90.0958 114.389 90.4983 114.159 90.8226Z" fill="white"/>
</g>
<g clip-path="url(#clip3_9_67)">
<path d="M145.947 113.418L139.863 121.976C139.633 122.3 139.283 122.519 138.891 122.586C138.499 122.652 138.096 122.56 137.772 122.329L121.878 111.032C121.554 110.801 121.334 110.452 121.268 110.059C121.202 109.667 121.294 109.265 121.524 108.94L132.822 93.0464L119.373 83.487L114.159 90.8227C113.928 91.1469 113.578 91.3664 113.186 91.4327C112.794 91.499 112.391 91.4067 112.067 91.1763C111.743 90.9458 111.523 90.5959 111.457 90.2037C111.391 89.8114 111.483 89.4089 111.714 89.0846L117.797 80.5263C118.027 80.2021 118.377 79.9826 118.769 79.9163C119.162 79.85 119.564 79.9423 119.888 80.1727L135.782 91.4702C136.107 91.7007 136.326 92.0505 136.392 92.4428C136.459 92.835 136.366 93.2376 136.136 93.5618L124.839 109.456L138.287 119.015L143.501 111.679C143.732 111.355 144.082 111.136 144.474 111.069C144.866 111.003 145.269 111.095 145.593 111.326C145.917 111.556 146.137 111.906 146.203 112.298C146.269 112.691 146.177 113.093 145.947 113.418Z" fill="white"/>
</g>
<g clip-path="url(#clip4_9_67)">
<path d="M177.735 136.012L171.651 144.571C171.421 144.895 171.071 145.114 170.679 145.181C170.287 145.247 169.884 145.155 169.56 144.924L153.666 133.627C153.342 133.396 153.122 133.046 153.056 132.654C152.989 132.262 153.082 131.859 153.312 131.535L164.61 115.641L151.161 106.082L145.947 113.417C145.716 113.742 145.366 113.961 144.974 114.027C144.582 114.094 144.179 114.001 143.855 113.771C143.531 113.541 143.311 113.191 143.245 112.798C143.179 112.406 143.271 112.004 143.501 111.679L149.585 103.121C149.815 102.797 150.165 102.577 150.557 102.511C150.95 102.445 151.352 102.537 151.676 102.767L167.57 114.065C167.895 114.295 168.114 114.645 168.18 115.037C168.247 115.43 168.154 115.832 167.924 116.157L156.626 132.051L170.075 141.61L175.289 134.274C175.52 133.95 175.87 133.731 176.262 133.664C176.654 133.598 177.057 133.69 177.381 133.921C177.705 134.151 177.925 134.501 177.991 134.893C178.057 135.285 177.965 135.688 177.735 136.012Z" fill="white"/>
</g>
<defs>
<clipPath id="clip0_9_67">
<rect width="48" height="48" fill="white" transform="translate(27.8091) rotate(35.4052)"/>
</clipPath>
<clipPath id="clip1_9_67">
<rect width="48" height="48" fill="white" transform="translate(59.5969 22.595) rotate(35.4052)"/>
</clipPath>
<clipPath id="clip2_9_67">
<rect width="48" height="48" fill="white" transform="translate(91.385 45.1897) rotate(35.4052)"/>
</clipPath>
<clipPath id="clip3_9_67">
<rect width="48" height="48" fill="white" transform="translate(123.173 67.7847) rotate(35.4052)"/>
</clipPath>
<clipPath id="clip4_9_67">
<rect width="48" height="48" fill="white" transform="translate(154.961 90.3794) rotate(35.4052)"/>
</clipPath>
</defs>
</svg>
