<svg width="195" height="157" viewBox="0 0 195 157" fill="none" xmlns="http://www.w3.org/2000/svg">
<path d="M50.8361 111.784L50.606 128.425C50.6035 128.663 50.5443 128.897 50.4334 129.108C50.3225 129.318 50.163 129.499 49.9682 129.635C49.7734 129.772 49.5488 129.86 49.3131 129.892C49.0774 129.924 48.8373 129.9 48.6127 129.821L19.145 119.549L18.9422 134.111C18.9397 134.309 18.8985 134.503 18.8209 134.684C18.7432 134.865 18.6307 135.029 18.4897 135.167C18.3487 135.304 18.182 135.412 17.999 135.485C17.8161 135.558 17.6206 135.594 17.4236 135.591C17.2266 135.589 17.0321 135.547 16.851 135.469C16.67 135.391 16.506 135.278 16.3684 135.137C16.2308 134.996 16.1224 134.829 16.0493 134.645C15.9761 134.462 15.9398 134.267 15.9422 134.07L16.1722 117.428C16.1748 117.19 16.234 116.956 16.3449 116.746C16.4558 116.535 16.6153 116.354 16.8101 116.218C17.0049 116.081 17.2295 115.993 17.4652 115.961C17.7009 115.929 17.941 115.953 18.1656 116.032L47.6358 126.298L47.8386 111.735C47.841 111.538 47.8822 111.344 47.9599 111.163C48.0375 110.982 48.15 110.818 48.291 110.68C48.432 110.543 48.5988 110.435 48.7817 110.362C48.9646 110.289 49.1601 110.253 49.3571 110.256C49.5541 110.258 49.7487 110.3 49.9297 110.378C50.1108 110.456 50.2748 110.569 50.4123 110.71C50.5499 110.851 50.6583 111.018 50.7315 111.201C50.8046 111.385 50.841 111.58 50.8385 111.777L50.8361 111.784Z" fill="white"/>
<path d="M83.2835 89.0637L82.8256 105.865C82.8199 106.105 82.7564 106.342 82.6405 106.556C82.5246 106.77 82.3597 106.955 82.1593 107.095C81.9589 107.235 81.7289 107.327 81.4882 107.363C81.2476 107.399 81.0032 107.377 80.7754 107.3L50.8806 97.3275L50.4784 112.03C50.4732 112.229 50.4286 112.426 50.3471 112.609C50.2655 112.793 50.1486 112.96 50.0031 113.101C49.8575 113.241 49.6862 113.353 49.4987 113.429C49.3113 113.505 49.1116 113.544 48.9109 113.544C48.7101 113.544 48.5124 113.504 48.3289 113.428C48.1454 113.352 47.9798 113.24 47.8415 113.099C47.7032 112.958 47.5949 112.791 47.5229 112.607C47.4508 112.424 47.4163 112.227 47.4215 112.028L47.8793 95.2265C47.8851 94.9862 47.9486 94.7492 48.0644 94.5353C48.1803 94.3214 48.3453 94.1366 48.5457 93.9963C48.746 93.856 48.9761 93.7642 49.2167 93.7284C49.4574 93.6927 49.7018 93.7141 49.9296 93.7909L79.827 103.757L80.2292 89.0554C80.2343 88.8564 80.2789 88.6594 80.3605 88.4756C80.442 88.2918 80.5589 88.1249 80.7045 87.9843C80.85 87.8437 81.0214 87.7322 81.2088 87.6561C81.3962 87.5801 81.596 87.5411 81.7967 87.5412C81.9974 87.5413 82.1952 87.5806 82.3786 87.6569C82.5621 87.7332 82.7277 87.8449 82.866 87.9857C83.0043 88.1265 83.1126 88.2936 83.1847 88.4774C83.2568 88.6613 83.2912 88.8584 83.2861 89.0573L83.2835 89.0637Z" fill="white"/>
<path d="M114.763 67.0217L114.533 83.6632C114.53 83.9013 114.471 84.1352 114.36 84.3457C114.249 84.5562 114.09 84.7371 113.895 84.8735C113.7 85.0099 113.476 85.0979 113.24 85.1301C113.004 85.1624 112.764 85.138 112.54 85.0589L83.0719 74.787L82.869 89.3495C82.8666 89.5465 82.8254 89.7412 82.7478 89.9222C82.6701 90.1032 82.5576 90.2671 82.4166 90.4046C82.2756 90.542 82.1088 90.6502 81.9259 90.7231C81.743 90.796 81.5475 90.8321 81.3505 90.8293C81.1535 90.8266 80.9589 90.785 80.7779 90.7071C80.5968 90.6291 80.4328 90.5163 80.2953 90.375C80.1577 90.2337 80.0493 90.0667 79.9761 89.8835C79.903 89.7004 79.8666 89.5047 79.8691 89.3076L80.0991 72.6661C80.1017 72.428 80.1609 72.194 80.2718 71.9836C80.3827 71.7731 80.5422 71.5922 80.737 71.4558C80.9318 71.3193 81.1564 71.2314 81.3921 71.1991C81.6278 71.1669 81.8679 71.1913 82.0925 71.2703L111.563 81.5359L111.765 66.9735C111.768 66.7764 111.809 66.5818 111.887 66.4008C111.964 66.2197 112.077 66.0558 112.218 65.9184C112.359 65.781 112.526 65.6727 112.709 65.5999C112.891 65.527 113.087 65.4909 113.284 65.4936C113.481 65.4964 113.676 65.5379 113.857 65.6159C114.038 65.6938 114.202 65.8067 114.339 65.948C114.477 66.0893 114.585 66.2563 114.658 66.4394C114.731 66.6226 114.768 66.8183 114.765 67.0154L114.763 67.0217Z" fill="white"/>
<path d="M147.21 44.3015L146.752 61.1026C146.747 61.3429 146.683 61.5799 146.567 61.7938C146.451 62.0077 146.286 62.1925 146.086 62.3328C145.886 62.4731 145.656 62.5649 145.415 62.6007C145.174 62.6364 144.93 62.615 144.702 62.5382L114.807 52.5653L114.405 67.2674C114.4 67.4663 114.355 67.6633 114.274 67.8471C114.192 68.0309 114.075 68.1978 113.93 68.3384C113.784 68.479 113.613 68.5905 113.426 68.6666C113.238 68.7426 113.038 68.7817 112.838 68.7815C112.637 68.7814 112.439 68.7421 112.256 68.6658C112.072 68.5895 111.907 68.4778 111.768 68.337C111.63 68.1963 111.522 68.0291 111.45 67.8453C111.378 67.6614 111.343 67.4643 111.348 67.2654L111.806 50.4643C111.812 50.224 111.875 49.987 111.991 49.7731C112.107 49.5591 112.272 49.3744 112.472 49.2341C112.673 49.0938 112.903 49.002 113.144 48.9662C113.384 48.9305 113.629 48.9519 113.856 49.0287L143.754 58.9952L144.156 44.2932C144.161 44.0942 144.206 43.8972 144.287 43.7134C144.369 43.5296 144.486 43.3627 144.631 43.2221C144.777 43.0815 144.948 42.97 145.136 42.8939C145.323 42.8179 145.523 42.7788 145.723 42.779C145.924 42.7791 146.122 42.8184 146.305 42.8947C146.489 42.971 146.654 43.0827 146.793 43.2235C146.931 43.3643 147.039 43.5314 147.111 43.7152C147.184 43.8991 147.218 44.0962 147.213 44.2951L147.21 44.3015Z" fill="white"/>
<path d="M178.69 22.2594L178.46 38.901C178.457 39.1391 178.398 39.373 178.287 39.5835C178.176 39.794 178.017 39.9749 177.822 40.1113C177.627 40.2477 177.402 40.3357 177.167 40.3679C176.931 40.4002 176.691 40.3758 176.466 40.2967L146.999 30.0248L146.796 44.5873C146.793 44.7843 146.752 44.979 146.675 45.16C146.597 45.341 146.484 45.5049 146.343 45.6424C146.202 45.7798 146.036 45.888 145.853 45.9609C145.67 46.0338 145.474 46.0699 145.277 46.0671C145.08 46.0644 144.886 46.0228 144.705 45.9449C144.524 45.8669 144.36 45.7541 144.222 45.6128C144.084 45.4714 143.976 45.3045 143.903 45.1213C143.83 44.9382 143.793 44.7425 143.796 44.5454L144.026 27.9038C144.028 27.6658 144.088 27.4318 144.199 27.2213C144.309 27.0109 144.469 26.83 144.664 26.6935C144.859 26.5571 145.083 26.4692 145.319 26.4369C145.555 26.4047 145.795 26.4291 146.019 26.5081L175.489 36.7737L175.692 22.2113C175.695 22.0142 175.736 21.8196 175.814 21.6385C175.891 21.4575 176.004 21.2936 176.145 21.1562C176.286 21.0188 176.452 20.9105 176.635 20.8376C176.818 20.7648 177.014 20.7287 177.211 20.7314C177.408 20.7342 177.602 20.7757 177.783 20.8537C177.964 20.9316 178.128 21.0445 178.266 21.1858C178.404 21.3271 178.512 21.4941 178.585 21.6772C178.658 21.8604 178.695 22.0561 178.692 22.2532L178.69 22.2594Z" fill="white"/>
</svg>
