<svg width="263" height="35" viewBox="0 0 263 35" fill="none" xmlns="http://www.w3.org/2000/svg">
<path d="M32.6047 18.1399L25.4953 27.9837C25.394 28.1248 25.2606 28.2398 25.1061 28.3191C24.9515 28.3984 24.7803 28.4398 24.6066 28.4398C24.4329 28.4398 24.2617 28.3984 24.1072 28.3191C23.9526 28.2398 23.8192 28.1248 23.718 27.9837L10.3906 9.52391L4.16854 18.1372C4.08451 18.2539 3.97832 18.3529 3.85603 18.4286C3.73374 18.5042 3.59775 18.5551 3.45581 18.5782C3.31388 18.6013 3.16878 18.5962 3.02881 18.5632C2.88883 18.5303 2.75672 18.47 2.64002 18.386C2.52332 18.302 2.42431 18.1958 2.34865 18.0735C2.27298 17.9512 2.22215 17.8152 2.19904 17.6733C2.17594 17.5314 2.18101 17.3863 2.21398 17.2463C2.24695 17.1063 2.30717 16.9742 2.39119 16.8575L9.50057 7.01375C9.60183 6.87262 9.73525 6.75763 9.88979 6.67831C10.0443 6.59899 10.2155 6.55762 10.3892 6.55762C10.5629 6.55762 10.7342 6.59899 10.8887 6.67831C11.0432 6.75763 11.1767 6.87262 11.2779 7.01375L24.6094 25.4708L30.8314 16.8575C30.9155 16.7408 31.0216 16.6418 31.1439 16.5661C31.2662 16.4905 31.4022 16.4396 31.5442 16.4165C31.6861 16.3934 31.8312 16.3985 31.9712 16.4315C32.1111 16.4644 32.2432 16.5247 32.3599 16.6087C32.4766 16.6927 32.5757 16.7989 32.6513 16.9212C32.727 17.0435 32.7778 17.1795 32.8009 17.3214C32.824 17.4633 32.819 17.6084 32.786 17.7484C32.753 17.8884 32.6928 18.0205 32.6088 18.1372L32.6047 18.1399Z" fill="white"/>
<path d="M61.5363 18.1399L54.2238 27.9837C54.1197 28.1248 53.9824 28.2398 53.8235 28.3191C53.6645 28.3984 53.4884 28.4398 53.3097 28.4398C53.1311 28.4398 52.955 28.3984 52.796 28.3191C52.6371 28.2398 52.4998 28.1248 52.3957 27.9837L38.6876 9.52391L32.2877 18.1372C32.2013 18.2539 32.0921 18.3529 31.9663 18.4286C31.8405 18.5042 31.7006 18.5551 31.5546 18.5782C31.4086 18.6013 31.2594 18.5962 31.1154 18.5632C30.9714 18.5303 30.8356 18.47 30.7155 18.386C30.5955 18.302 30.4937 18.1958 30.4158 18.0735C30.338 17.9512 30.2857 17.8152 30.2619 17.6733C30.2382 17.5314 30.2434 17.3863 30.2773 17.2463C30.3112 17.1063 30.3732 16.9742 30.4596 16.8575L37.7721 7.01375C37.8762 6.87262 38.0135 6.75763 38.1724 6.67831C38.3314 6.59899 38.5075 6.55762 38.6862 6.55762C38.8648 6.55762 39.0409 6.59899 39.1999 6.67831C39.3588 6.75763 39.4961 6.87262 39.6002 7.01375L53.3126 25.4708L59.7124 16.8575C59.7988 16.7408 59.9081 16.6418 60.0338 16.5661C60.1596 16.4905 60.2995 16.4396 60.4455 16.4165C60.5915 16.3934 60.7407 16.3985 60.8847 16.4315C61.0287 16.4644 61.1646 16.5247 61.2846 16.6087C61.4046 16.6927 61.5065 16.7989 61.5843 16.9212C61.6621 17.0435 61.7144 17.1795 61.7382 17.3214C61.7619 17.4633 61.7567 17.6084 61.7228 17.7484C61.6889 17.8884 61.627 18.0205 61.5405 18.1372L61.5363 18.1399Z" fill="white"/>
<path d="M89.6047 18.1399L82.4953 27.9837C82.394 28.1248 82.2606 28.2398 82.1061 28.3191C81.9515 28.3984 81.7803 28.4398 81.6066 28.4398C81.4329 28.4398 81.2617 28.3984 81.1072 28.3191C80.9526 28.2398 80.8192 28.1248 80.718 27.9837L67.3906 9.52391L61.1685 18.1372C61.0845 18.2539 60.9783 18.3529 60.856 18.4286C60.7337 18.5042 60.5977 18.5551 60.4558 18.5782C60.3139 18.6013 60.1688 18.5962 60.0288 18.5632C59.8888 18.5303 59.7567 18.47 59.64 18.386C59.5233 18.302 59.4243 18.1958 59.3486 18.0735C59.273 17.9512 59.2221 17.8152 59.199 17.6733C59.1759 17.5314 59.181 17.3863 59.214 17.2463C59.247 17.1063 59.3072 16.9742 59.3912 16.8575L66.5006 7.01375C66.6018 6.87262 66.7353 6.75763 66.8898 6.67831C67.0443 6.59899 67.2155 6.55762 67.3892 6.55762C67.5629 6.55762 67.7342 6.59899 67.8887 6.67831C68.0432 6.75763 68.1767 6.87262 68.2779 7.01375L81.6094 25.4708L87.8314 16.8575C87.9155 16.7408 88.0216 16.6418 88.1439 16.5661C88.2662 16.4905 88.4022 16.4396 88.5442 16.4165C88.6861 16.3934 88.8312 16.3985 88.9712 16.4315C89.1111 16.4644 89.2432 16.5247 89.3599 16.6087C89.4766 16.6927 89.5757 16.7989 89.6513 16.9212C89.727 17.0435 89.7778 17.1795 89.8009 17.3214C89.824 17.4633 89.819 17.6084 89.786 17.7484C89.753 17.8884 89.6928 18.0205 89.6088 18.1372L89.6047 18.1399Z" fill="white"/>
<path d="M118.536 18.1399L111.224 27.9837C111.12 28.1248 110.982 28.2398 110.823 28.3191C110.665 28.3984 110.488 28.4398 110.31 28.4398C110.131 28.4398 109.955 28.3984 109.796 28.3191C109.637 28.2398 109.5 28.1248 109.396 27.9837L95.6876 9.52391L89.2877 18.1372C89.2013 18.2539 89.0921 18.3529 88.9663 18.4286C88.8405 18.5042 88.7006 18.5551 88.5546 18.5782C88.4086 18.6013 88.2594 18.5962 88.1154 18.5632C87.9714 18.5303 87.8356 18.47 87.7155 18.386C87.5955 18.302 87.4937 18.1958 87.4158 18.0735C87.338 17.9512 87.2857 17.8152 87.2619 17.6733C87.2382 17.5314 87.2434 17.3863 87.2773 17.2463C87.3112 17.1063 87.3732 16.9742 87.4596 16.8575L94.7721 7.01375C94.8762 6.87262 95.0135 6.75763 95.1724 6.67831C95.3314 6.59899 95.5075 6.55762 95.6862 6.55762C95.8648 6.55762 96.0409 6.59899 96.1999 6.67831C96.3588 6.75763 96.4961 6.87262 96.6002 7.01375L110.313 25.4708L116.712 16.8575C116.799 16.7408 116.908 16.6418 117.034 16.5661C117.16 16.4905 117.299 16.4396 117.445 16.4165C117.591 16.3934 117.741 16.3985 117.885 16.4315C118.029 16.4644 118.165 16.5247 118.285 16.6087C118.405 16.6927 118.506 16.7989 118.584 16.9212C118.662 17.0435 118.714 17.1795 118.738 17.3214C118.762 17.4633 118.757 17.6084 118.723 17.7484C118.689 17.8884 118.627 18.0205 118.541 18.1372L118.536 18.1399Z" fill="white"/>
<path d="M146.605 18.1399L139.495 27.9837C139.394 28.1248 139.261 28.2398 139.106 28.3191C138.952 28.3984 138.78 28.4398 138.607 28.4398C138.433 28.4398 138.262 28.3984 138.107 28.3191C137.953 28.2398 137.819 28.1248 137.718 27.9837L124.391 9.52391L118.169 18.1372C118.085 18.2539 117.978 18.3529 117.856 18.4286C117.734 18.5042 117.598 18.5551 117.456 18.5782C117.314 18.6013 117.169 18.5962 117.029 18.5632C116.889 18.5303 116.757 18.47 116.64 18.386C116.523 18.302 116.424 18.1958 116.349 18.0735C116.273 17.9512 116.222 17.8152 116.199 17.6733C116.176 17.5314 116.181 17.3863 116.214 17.2463C116.247 17.1063 116.307 16.9742 116.391 16.8575L123.501 7.01375C123.602 6.87262 123.735 6.75763 123.89 6.67831C124.044 6.59899 124.216 6.55762 124.389 6.55762C124.563 6.55762 124.734 6.59899 124.889 6.67831C125.043 6.75763 125.177 6.87262 125.278 7.01375L138.609 25.4708L144.831 16.8575C144.915 16.7408 145.022 16.6418 145.144 16.5661C145.266 16.4905 145.402 16.4396 145.544 16.4165C145.686 16.3934 145.831 16.3985 145.971 16.4315C146.111 16.4644 146.243 16.5247 146.36 16.6087C146.477 16.6927 146.576 16.7989 146.651 16.9212C146.727 17.0435 146.778 17.1795 146.801 17.3214C146.824 17.4633 146.819 17.6084 146.786 17.7484C146.753 17.8884 146.693 18.0205 146.609 18.1372L146.605 18.1399Z" fill="white"/>
<path d="M146.605 18.1399L139.495 27.9837C139.394 28.1248 139.261 28.2398 139.106 28.3191C138.952 28.3984 138.78 28.4398 138.607 28.4398C138.433 28.4398 138.262 28.3984 138.107 28.3191C137.953 28.2398 137.819 28.1248 137.718 27.9837L124.391 9.52391L118.169 18.1372C118.085 18.2539 117.978 18.3529 117.856 18.4286C117.734 18.5042 117.598 18.5551 117.456 18.5782C117.314 18.6013 117.169 18.5962 117.029 18.5632C116.889 18.5303 116.757 18.47 116.64 18.386C116.523 18.302 116.424 18.1958 116.349 18.0735C116.273 17.9512 116.222 17.8152 116.199 17.6733C116.176 17.5314 116.181 17.3863 116.214 17.2463C116.247 17.1063 116.307 16.9742 116.391 16.8575L123.501 7.01375C123.602 6.87262 123.735 6.75763 123.89 6.67831C124.044 6.59899 124.216 6.55762 124.389 6.55762C124.563 6.55762 124.734 6.59899 124.889 6.67831C125.043 6.75763 125.177 6.87262 125.278 7.01375L138.609 25.4708L144.831 16.8575C144.915 16.7408 145.022 16.6418 145.144 16.5661C145.266 16.4905 145.402 16.4396 145.544 16.4165C145.686 16.3934 145.831 16.3985 145.971 16.4315C146.111 16.4644 146.243 16.5247 146.36 16.6087C146.477 16.6927 146.576 16.7989 146.651 16.9212C146.727 17.0435 146.778 17.1795 146.801 17.3214C146.824 17.4633 146.819 17.6084 146.786 17.7484C146.753 17.8884 146.693 18.0205 146.609 18.1372L146.605 18.1399Z" fill="white"/>
<path d="M175.536 18.1399L168.224 27.9837C168.12 28.1248 167.982 28.2398 167.823 28.3191C167.665 28.3984 167.488 28.4398 167.31 28.4398C167.131 28.4398 166.955 28.3984 166.796 28.3191C166.637 28.2398 166.5 28.1248 166.396 27.9837L152.688 9.52391L146.288 18.1372C146.201 18.2539 146.092 18.3529 145.966 18.4286C145.84 18.5042 145.701 18.5551 145.555 18.5782C145.409 18.6013 145.259 18.5962 145.115 18.5632C144.971 18.5303 144.836 18.47 144.716 18.386C144.595 18.302 144.494 18.1958 144.416 18.0735C144.338 17.9512 144.286 17.8152 144.262 17.6733C144.238 17.5314 144.243 17.3863 144.277 17.2463C144.311 17.1063 144.373 16.9742 144.46 16.8575L151.772 7.01375C151.876 6.87262 152.013 6.75763 152.172 6.67831C152.331 6.59899 152.507 6.55762 152.686 6.55762C152.865 6.55762 153.041 6.59899 153.2 6.67831C153.359 6.75763 153.496 6.87262 153.6 7.01375L167.313 25.4708L173.712 16.8575C173.799 16.7408 173.908 16.6418 174.034 16.5661C174.16 16.4905 174.299 16.4396 174.445 16.4165C174.591 16.3934 174.741 16.3985 174.885 16.4315C175.029 16.4644 175.165 16.5247 175.285 16.6087C175.405 16.6927 175.506 16.7989 175.584 16.9212C175.662 17.0435 175.714 17.1795 175.738 17.3214C175.762 17.4633 175.757 17.6084 175.723 17.7484C175.689 17.8884 175.627 18.0205 175.541 18.1372L175.536 18.1399Z" fill="white"/>
<path d="M203.605 18.1399L196.495 27.9837C196.394 28.1248 196.261 28.2398 196.106 28.3191C195.952 28.3984 195.78 28.4398 195.607 28.4398C195.433 28.4398 195.262 28.3984 195.107 28.3191C194.953 28.2398 194.819 28.1248 194.718 27.9837L181.391 9.52391L175.169 18.1372C175.085 18.2539 174.978 18.3529 174.856 18.4286C174.734 18.5042 174.598 18.5551 174.456 18.5782C174.314 18.6013 174.169 18.5962 174.029 18.5632C173.889 18.5303 173.757 18.47 173.64 18.386C173.523 18.302 173.424 18.1958 173.349 18.0735C173.273 17.9512 173.222 17.8152 173.199 17.6733C173.176 17.5314 173.181 17.3863 173.214 17.2463C173.247 17.1063 173.307 16.9742 173.391 16.8575L180.501 7.01375C180.602 6.87262 180.735 6.75763 180.89 6.67831C181.044 6.59899 181.216 6.55762 181.389 6.55762C181.563 6.55762 181.734 6.59899 181.889 6.67831C182.043 6.75763 182.177 6.87262 182.278 7.01375L195.609 25.4708L201.831 16.8575C201.915 16.7408 202.022 16.6418 202.144 16.5661C202.266 16.4905 202.402 16.4396 202.544 16.4165C202.686 16.3934 202.831 16.3985 202.971 16.4315C203.111 16.4644 203.243 16.5247 203.36 16.6087C203.477 16.6927 203.576 16.7989 203.651 16.9212C203.727 17.0435 203.778 17.1795 203.801 17.3214C203.824 17.4633 203.819 17.6084 203.786 17.7484C203.753 17.8884 203.693 18.0205 203.609 18.1372L203.605 18.1399Z" fill="white"/>
<path d="M232.536 18.1399L225.224 27.9837C225.12 28.1248 224.982 28.2398 224.823 28.3191C224.665 28.3984 224.488 28.4398 224.31 28.4398C224.131 28.4398 223.955 28.3984 223.796 28.3191C223.637 28.2398 223.5 28.1248 223.396 27.9837L209.688 9.52391L203.288 18.1372C203.201 18.2539 203.092 18.3529 202.966 18.4286C202.84 18.5042 202.701 18.5551 202.555 18.5782C202.409 18.6013 202.259 18.5962 202.115 18.5632C201.971 18.5303 201.836 18.47 201.716 18.386C201.595 18.302 201.494 18.1958 201.416 18.0735C201.338 17.9512 201.286 17.8152 201.262 17.6733C201.238 17.5314 201.243 17.3863 201.277 17.2463C201.311 17.1063 201.373 16.9742 201.46 16.8575L208.772 7.01375C208.876 6.87262 209.013 6.75763 209.172 6.67831C209.331 6.59899 209.507 6.55762 209.686 6.55762C209.865 6.55762 210.041 6.59899 210.2 6.67831C210.359 6.75763 210.496 6.87262 210.6 7.01375L224.313 25.4708L230.712 16.8575C230.799 16.7408 230.908 16.6418 231.034 16.5661C231.16 16.4905 231.299 16.4396 231.445 16.4165C231.591 16.3934 231.741 16.3985 231.885 16.4315C232.029 16.4644 232.165 16.5247 232.285 16.6087C232.405 16.6927 232.506 16.7989 232.584 16.9212C232.662 17.0435 232.714 17.1795 232.738 17.3214C232.762 17.4633 232.757 17.6084 232.723 17.7484C232.689 17.8884 232.627 18.0205 232.541 18.1372L232.536 18.1399Z" fill="white"/>
<path d="M260.605 18.1399L253.495 27.9837C253.394 28.1248 253.261 28.2398 253.106 28.3191C252.952 28.3984 252.78 28.4398 252.607 28.4398C252.433 28.4398 252.262 28.3984 252.107 28.3191C251.953 28.2398 251.819 28.1248 251.718 27.9837L238.391 9.52391L232.169 18.1372C232.085 18.2539 231.978 18.3529 231.856 18.4286C231.734 18.5042 231.598 18.5551 231.456 18.5782C231.314 18.6013 231.169 18.5962 231.029 18.5632C230.889 18.5303 230.757 18.47 230.64 18.386C230.523 18.302 230.424 18.1958 230.349 18.0735C230.273 17.9512 230.222 17.8152 230.199 17.6733C230.176 17.5314 230.181 17.3863 230.214 17.2463C230.247 17.1063 230.307 16.9742 230.391 16.8575L237.501 7.01375C237.602 6.87262 237.735 6.75763 237.89 6.67831C238.044 6.59899 238.216 6.55762 238.389 6.55762C238.563 6.55762 238.734 6.59899 238.889 6.67831C239.043 6.75763 239.177 6.87262 239.278 7.01375L252.609 25.4708L258.831 16.8575C258.915 16.7408 259.022 16.6418 259.144 16.5661C259.266 16.4905 259.402 16.4396 259.544 16.4165C259.686 16.3934 259.831 16.3985 259.971 16.4315C260.111 16.4644 260.243 16.5247 260.36 16.6087C260.477 16.6927 260.576 16.7989 260.651 16.9212C260.727 17.0435 260.778 17.1795 260.801 17.3214C260.824 17.4633 260.819 17.6084 260.786 17.7484C260.753 17.8884 260.693 18.0205 260.609 18.1372L260.605 18.1399Z" fill="white"/>
</svg>
